<svg xmlns="http://www.w3.org/2000/svg" viewBox="0 0 200 320" fill="none" stroke="currentColor" stroke-width="0.75" stroke-linecap="round" stroke-linejoin="round">
  <!-- Single tulip stem — hairline engraved line-art -->
  <!-- long gentle stem -->
  <path d="M100 316 C 96 240, 104 170, 98 100 C 94 70, 104 50, 100 30"/>
  <!-- tulip cup (3 visible petals) -->
  <path d="M100 30 C 78 28, 66 46, 70 70 C 72 86, 86 96, 100 96"/>
  <path d="M100 30 C 122 28, 134 46, 130 70 C 128 86, 114 96, 100 96"/>
  <path d="M100 34 C 92 48, 90 72, 100 96"/>
  <path d="M100 34 C 108 48, 110 72, 100 96"/>
  <!-- inner petal fold -->
  <path d="M86 54 C 94 60, 106 60, 114 54" opacity="0.7"/>
  <!-- long tulip leaf, elegant curve -->
  <path d="M100 140 C 130 130, 160 150, 168 192 C 172 220, 158 244, 140 250"/>
  <path d="M100 140 C 112 170, 130 200, 150 222" opacity="0.6"/>
  <!-- second smaller leaf on opposite side -->
  <path d="M98 208 C 76 202, 54 216, 46 248 C 40 270, 52 290, 70 294"/>
  <path d="M98 208 C 86 232, 72 258, 60 280" opacity="0.6"/>
</svg>
