<svg xmlns="http://www.w3.org/2000/svg" viewBox="0 0 320 160" fill="none" stroke="currentColor" stroke-width="0.75" stroke-linecap="round" stroke-linejoin="round">
  <!-- Simple leaf branch — hairline. Reads as olive/laurel/eucalyptus -->
  <path d="M10 80 C 80 72, 160 80, 240 76 C 278 74, 300 82, 314 86"/>
  <!-- paired leaves along the branch -->
  <g>
    <path d="M48 80 C 40 60, 44 46, 60 42 C 70 52, 68 70, 56 80"/>
    <path d="M48 80 C 56 100, 52 114, 36 118 C 26 108, 28 90, 40 80"/>
    <path d="M50 58 L 56 72" opacity="0.7"/>
    <path d="M46 102 L 40 88" opacity="0.7"/>
  </g>
  <g>
    <path d="M92 80 C 84 60, 88 44, 106 40 C 116 52, 114 72, 100 80"/>
    <path d="M92 80 C 100 100, 96 116, 78 120 C 68 108, 70 88, 84 80"/>
  </g>
  <g>
    <path d="M140 78 C 132 58, 138 42, 156 38 C 166 50, 164 70, 150 78"/>
    <path d="M140 78 C 148 98, 144 114, 126 118 C 116 106, 118 86, 132 78"/>
  </g>
  <g>
    <path d="M188 78 C 180 58, 186 42, 204 38 C 214 50, 212 70, 198 78"/>
    <path d="M188 78 C 196 98, 192 114, 174 118 C 164 106, 166 86, 180 78"/>
  </g>
  <g>
    <path d="M236 78 C 228 60, 232 46, 246 42 C 256 52, 254 68, 244 78"/>
    <path d="M236 78 C 242 96, 238 108, 224 112 C 216 102, 218 88, 230 78"/>
  </g>
  <g>
    <path d="M278 80 C 272 66, 276 54, 286 50 C 294 58, 292 72, 284 80"/>
    <path d="M278 80 C 282 94, 278 104, 268 106 C 262 98, 264 86, 272 80"/>
  </g>
  <!-- tip bud -->
  <path d="M306 84 C 314 80, 318 84, 314 90 C 310 92, 306 90, 306 84 Z"/>
</svg>
