<svg viewBox="0 0 1080 1080" xmlns="http://www.w3.org/2000/svg">
  <defs>
    <radialGradient id="bg" cx="50%" cy="50%" r="50%">
      <stop offset="0%" stop-color="#0D0D0D"/>
      <stop offset="100%" stop-color="#000000"/>
    </radialGradient>
  </defs>
  <circle cx="540" cy="540" r="540" fill="url(#bg)"/>
  <circle cx="540" cy="540" r="534" fill="none" stroke="white" stroke-opacity="0.1" stroke-width="2"/>
  <!-- Grid -->
  <g stroke="white" stroke-opacity="0.04" stroke-width="1">
    <line x1="216" y1="270" x2="864" y2="270"/>
    <line x1="216" y1="378" x2="864" y2="378"/>
    <line x1="216" y1="486" x2="864" y2="486"/>
    <line x1="216" y1="594" x2="864" y2="594"/>
    <line x1="324" y1="216" x2="324" y2="648"/>
    <line x1="540" y1="216" x2="540" y2="648"/>
    <line x1="756" y1="216" x2="756" y2="648"/>
  </g>
  <!-- Nodes -->
  <circle cx="324" cy="378" r="8" fill="#4A90FF" opacity="0.4"/>
  <circle cx="540" cy="486" r="10" fill="#4A90FF" opacity="0.6"/>
  <circle cx="756" cy="378" r="7" fill="#4A90FF" opacity="0.3"/>
  <circle cx="540" cy="270" r="6" fill="white" opacity="0.2"/>
  <circle cx="324" cy="594" r="6" fill="white" opacity="0.15"/>
  <!-- Connections -->
  <line x1="324" y1="378" x2="540" y2="486" stroke="#4A90FF" stroke-opacity="0.25" stroke-width="2"/>
  <line x1="540" y1="486" x2="756" y2="378" stroke="#4A90FF" stroke-opacity="0.2" stroke-width="2"/>
  <!-- Text -->
  <text x="540" y="780" text-anchor="middle" font-family="Inter, sans-serif" font-weight="600" font-size="60" fill="white" letter-spacing="0.06em">SYSTEMS</text>
  <text x="540" y="840" text-anchor="middle" font-family="Inter, sans-serif" font-weight="400" font-size="28" fill="white" fill-opacity="0.35" letter-spacing="0.1em">AI IMPLEMENTATION</text>
</svg>