<!-- ZNITH Corporate Lion Mark — White on Transparent (for dark backgrounds) -->
<svg xmlns="http://www.w3.org/2000/svg" viewBox="0 0 120 140" fill="none">
  <!-- Crown -->
  <path d="M36 18l6-14 6 8 6-8 6 8 6-8 6 14H36z" fill="#DF9F3E"/>
  <rect x="36" y="18" width="36" height="4" rx="1" fill="#DF9F3E"/>

  <!-- Lion Head -->
  <g fill="#FFFFFF">
    <path d="M30 40c-4 6-6 14-4 24 2 10 8 16 14 20-8-2-16-10-18-22-2-10 2-18 8-22z"/>
    <path d="M28 50c-6 4-10 12-8 22s10 16 16 18c-8 0-18-8-20-20-2-10 4-18 12-20z"/>
    <path d="M34 36c-2 2-6 8-6 16s4 16 10 22c-10-4-16-14-16-24 0-8 4-12 12-14z"/>
    <path d="M42 32c12-2 22 4 28 14 4 6 6 14 6 22 0 4-2 8-4 10l-8 4-6-2c-2-2-2-4-2-6l2-6c-4 2-8 2-12 0-6-2-10-8-12-14-2-8 0-16 8-22z"/>
    <path d="M52 30l8-6 4 8-6 4-6-6z"/>
    <circle cx="62" cy="52" r="3"/>
    <circle cx="63" cy="51" r="1" fill="#0A1628"/>
    <path d="M78 64c2 0 4 2 4 4s-2 4-4 4l-4-2v-4l4-2z"/>
    <path d="M46 76c4 4 10 6 16 4l10-4 4 2c-2 4-6 8-12 10-8 2-14-2-18-8v-4z"/>
    <path d="M36 44c-2 4-2 10 0 16" stroke="#FFFFFF" stroke-width="1.5" fill="none"/>
    <path d="M32 52c-2 4-2 10 2 16" stroke="#FFFFFF" stroke-width="1.5" fill="none"/>
  </g>
  <path d="M44 84c-2 6-2 12 0 18 2-6 4-12 2-18z" fill="#FFFFFF"/>
  <line x1="20" y1="110" x2="100" y2="110" stroke="#FFFFFF" stroke-width="1.5"/>
  <text x="60" y="130" font-family="Cinzel, serif" font-weight="300" font-size="16" letter-spacing="0.12em" text-anchor="middle" fill="#FFFFFF">ZNITH</text>
</svg>
