<svg xmlns="http://www.w3.org/2000/svg" viewBox="0 0 480 600" fill="none">
  <!-- Wedding Monogram v2 — M & D
       Variant: Looser, more organic asymmetric frame.
       Garden roses top-heavy, trailing wisteria-like bottom.
       All letterforms as paths (no font dependency).
       Uses currentColor for full theming flexibility. -->

  <!-- ============ BOTANICAL FRAME — VARIANT: TOP-HEAVY GARDEN ============ -->
  <g stroke="currentColor" fill="none" stroke-linecap="round" stroke-linejoin="round">

    <!-- Main frame — more open, organic shape -->
    <!-- Top arch — weighted left, garden rose cascade -->
    <path d="M132 228 C 116 174, 128 118, 170 86 C 200 66, 238 58, 270 60 C 306 62, 340 74, 358 98 C 378 124, 382 168, 370 228"
          stroke-width="0.7"/>
    <!-- Left side — flowing, slight S-curve -->
    <path d="M132 228 C 124 268, 118 312, 122 354 C 126 392, 136 426, 154 458"
          stroke-width="0.6"/>
    <!-- Right side — straighter, creating asymmetry -->
    <path d="M370 228 C 374 270, 374 318, 370 356 C 364 392, 354 422, 336 452"
          stroke-width="0.6"/>
    <!-- Bottom — open arc, gentle -->
    <path d="M154 458 C 178 492, 216 508, 248 510 C 278 510, 310 494, 336 452"
          stroke-width="0.65"/>

    <!-- ============ TOP CENTER — Large garden rose ============ -->
    <g stroke-width="0.6">
      <!-- Main bloom sitting at apex of arch -->
      <path d="M240 68 C 234 58, 224 50, 218 42 C 214 36, 218 28, 226 28 C 232 28, 238 34, 240 40"/>
      <path d="M240 40 C 242 34, 248 28, 254 28 C 262 28, 266 36, 262 42 C 256 50, 246 58, 240 68"/>
      <!-- Outer petals -->
      <path d="M226 28 C 218 24, 210 28, 212 38 C 214 46, 222 50, 228 46"/>
      <path d="M254 28 C 262 24, 270 28, 268 38 C 266 46, 258 50, 252 46"/>
      <path d="M212 38 C 204 36, 198 42, 202 50 C 206 56, 216 58, 222 52"/>
      <path d="M268 38 C 276 36, 282 42, 278 50 C 274 56, 264 58, 258 52"/>
      <!-- Third layer -->
      <path d="M202 50 C 196 54, 196 62, 204 66 C 212 68, 222 64, 226 58"/>
      <path d="M278 50 C 284 54, 284 62, 276 66 C 268 68, 258 64, 254 58"/>
      <!-- Inner spiral -->
      <path d="M232 42 C 236 38, 244 38, 248 42 C 250 46, 246 50, 240 50 C 234 50, 230 46, 232 42"/>
      <path d="M236 44 C 238 42, 242 42, 244 44 C 244 46, 242 48, 240 48 C 238 48, 236 46, 236 44"/>
    </g>

    <!-- ============ TOP LEFT — Bud + leaves cascading ============ -->
    <g stroke-width="0.55">
      <!-- Stem from main frame -->
      <path d="M170 86 C 156 74, 140 66, 126 62"/>
      <!-- Rosebud -->
      <path d="M126 62 C 118 58, 110 60, 112 68 C 114 76, 122 78, 126 72"/>
      <path d="M126 72 C 128 66, 124 60, 120 62"/>
      <!-- Sepals -->
      <path d="M112 68 C 108 72, 104 68, 106 62 C 108 58, 114 56, 118 58"/>
      <!-- Leaves trailing from bud stem -->
      <path d="M142 72 C 130 64, 118 68, 116 80 C 126 82, 138 76, 142 72"/>
      <path d="M116 80 C 122 76, 132 72, 138 70" opacity="0.6"/>
      <path d="M152 78 C 140 86, 132 98, 138 110 C 148 106, 152 94, 152 78"/>
      <path d="M138 110 C 142 100, 148 92, 150 84" opacity="0.6"/>
    </g>

    <!-- Small accent leaves upper-left -->
    <g stroke-width="0.45" opacity="0.7">
      <path d="M148 108 C 136 104, 126 110, 128 122 C 138 120, 146 114, 148 108"/>
      <path d="M128 122 C 134 116, 142 112, 146 110"/>
    </g>

    <!-- ============ TOP RIGHT — Smaller bloom + trailing ============ -->
    <g stroke-width="0.55">
      <!-- Stem -->
      <path d="M330 90 C 346 78, 362 72, 374 68"/>
      <!-- Small open rose -->
      <path d="M374 68 C 380 62, 388 60, 392 66 C 394 72, 388 78, 382 78"/>
      <path d="M382 78 C 378 74, 376 66, 380 62"/>
      <path d="M392 66 C 398 64, 402 70, 398 76 C 394 80, 386 80, 382 76"/>
      <path d="M398 76 C 402 78, 404 84, 398 88 C 392 90, 384 86, 384 80"/>
      <!-- Leaf pair -->
      <path d="M358 76 C 368 82, 376 94, 372 106 C 364 100, 358 88, 358 76"/>
      <path d="M372 106 C 366 96, 362 86, 360 80" opacity="0.6"/>
      <path d="M348 84 C 356 92, 358 106, 352 116 C 346 108, 344 96, 348 84"/>
    </g>

    <!-- ============ LEFT SIDE — Fern fronds ============ -->
    <g stroke-width="0.5">
      <!-- Main fern stem -->
      <path d="M128 280 C 112 296, 100 318, 98 342"/>
      <!-- Frond pairs -->
      <path d="M118 290 C 108 284, 98 288, 98 298 C 106 298, 114 294, 118 290"/>
      <path d="M112 306 C 100 302, 90 308, 92 318 C 100 316, 110 310, 112 306"/>
      <path d="M106 322 C 94 320, 86 328, 90 336 C 98 334, 106 328, 106 322"/>
      <!-- Curling tip -->
      <path d="M98 342 C 94 350, 96 358, 102 356 C 106 352, 102 346, 98 346"/>
    </g>

    <!-- ============ RIGHT SIDE — Olive branch style ============ -->
    <g stroke-width="0.5">
      <!-- Main stem -->
      <path d="M374 286 C 388 302, 396 324, 394 348"/>
      <!-- Leaves alternating -->
      <path d="M382 296 C 392 290, 402 294, 400 304 C 394 306, 386 300, 382 296"/>
      <path d="M388 314 C 398 310, 408 316, 404 326 C 396 326, 390 320, 388 314"/>
      <path d="M392 334 C 400 330, 410 336, 406 344 C 398 344, 392 340, 392 334"/>
      <!-- Small berry accent -->
      <circle cx="400" cy="350" r="2" stroke-width="0.45"/>
      <circle cx="394" cy="358" r="1.6" stroke-width="0.4"/>
    </g>

    <!-- ============ BOTTOM — Trailing wisteria / vine ============ -->
    <!-- Bottom left — hanging vine with small blooms -->
    <g stroke-width="0.5">
      <path d="M188 498 C 172 508, 152 516, 136 518 C 122 518, 114 510, 118 498"/>
      <!-- Tiny hanging blooms -->
      <path d="M156 514 C 152 520, 148 526, 150 530 C 154 530, 156 524, 154 518" stroke-width="0.4"/>
      <path d="M140 516 C 136 522, 134 528, 138 530 C 142 528, 140 522, 138 518" stroke-width="0.4"/>
      <path d="M168 510 C 166 518, 162 524, 164 528 C 168 526, 168 520, 166 514" stroke-width="0.4"/>
      <!-- Leaf -->
      <path d="M126 508 C 118 502, 110 506, 114 514 C 120 514, 126 510, 126 508"/>
    </g>

    <!-- Bottom right — longer trailing, asymmetric -->
    <g stroke-width="0.5">
      <path d="M304 502 C 324 514, 348 522, 370 524 C 388 522, 398 512, 392 498"/>
      <!-- Leaves along trail -->
      <path d="M330 516 C 340 522, 350 520, 348 512 C 342 510, 334 514, 330 516"/>
      <path d="M358 522 C 366 526, 376 524, 374 516 C 368 514, 360 518, 358 522"/>
      <!-- Hanging blooms -->
      <path d="M344 520 C 342 528, 340 534, 344 536 C 348 534, 346 528, 342 522" stroke-width="0.4"/>
      <path d="M364 524 C 362 530, 360 536, 364 538 C 368 536, 366 530, 364 526" stroke-width="0.4"/>
      <path d="M380 520 C 378 526, 376 532, 380 534 C 384 532, 382 526, 378 522" stroke-width="0.4"/>
      <!-- Tendril curl at end -->
      <path d="M392 498 C 396 490, 400 488, 402 492 C 402 498, 396 500, 394 496" stroke-width="0.4"/>
    </g>

    <!-- Bottom center — small accent -->
    <g stroke-width="0.45" opacity="0.65">
      <path d="M236 514 C 232 520, 236 526, 242 524 C 246 520, 242 514, 238 516"/>
      <path d="M252 516 C 256 522, 252 528, 246 526 C 242 522, 248 516, 250 518"/>
    </g>

    <!-- ============ SCATTERED DETAIL ============ -->
    <g stroke-width="0.35" opacity="0.5">
      <circle cx="194" cy="72" r="1.2"/>
      <circle cx="288" cy="56" r="1"/>
      <circle cx="108" cy="248" r="1"/>
      <circle cx="388" cy="258" r="1"/>
      <path d="M210 64 C 214 58, 220 60, 218 66"/>
      <path d="M296 62 C 300 56, 306 58, 304 64"/>
    </g>
  </g>

  <!-- ============ EYEBROW — "save the date" as paths ============ -->
  <g fill="currentColor" opacity="0.55">
    <g transform="translate(168 194) scale(0.38)">
      <!-- s -->
      <path d="M0 24 C 2 18, 8 14, 14 14 C 20 14, 24 18, 24 22 C 24 26, 20 28, 14 30 C 8 32, 4 34, 4 38 C 4 42, 8 46, 16 46 C 22 46, 26 42, 28 38" stroke="currentColor" stroke-width="2" fill="none"/>
      <!-- a -->
      <path d="M40 28 C 40 22, 46 14, 54 14 C 62 14, 66 22, 66 30 L 66 46" stroke="currentColor" stroke-width="2" fill="none"/>
      <path d="M66 32 C 62 28, 56 26, 50 28 C 44 30, 40 36, 42 42 C 44 46, 50 48, 56 46 C 62 44, 66 38, 66 34" stroke="currentColor" stroke-width="2" fill="none"/>
      <!-- v -->
      <path d="M78 14 L 90 46 L 102 14" stroke="currentColor" stroke-width="2" fill="none"/>
      <!-- e -->
      <path d="M114 30 C 114 24, 120 14, 130 14 C 140 14, 144 22, 144 30 L 114 30 C 114 38, 120 46, 130 46 C 138 46, 142 40, 144 36" stroke="currentColor" stroke-width="2" fill="none"/>
      <!-- t -->
      <path d="M170 6 L 170 46" stroke="currentColor" stroke-width="2" fill="none"/>
      <path d="M160 16 L 180 16" stroke="currentColor" stroke-width="2" fill="none"/>
      <!-- h -->
      <path d="M194 2 L 194 46" stroke="currentColor" stroke-width="2" fill="none"/>
      <path d="M194 24 C 200 16, 208 14, 214 16 C 220 20, 222 28, 222 46" stroke="currentColor" stroke-width="2" fill="none"/>
      <!-- e -->
      <path d="M236 30 C 236 24, 242 14, 252 14 C 262 14, 266 22, 266 30 L 236 30 C 236 38, 242 46, 252 46 C 260 46, 264 40, 266 36" stroke="currentColor" stroke-width="2" fill="none"/>
      <!-- d -->
      <path d="M304 2 L 304 46" stroke="currentColor" stroke-width="2" fill="none"/>
      <path d="M304 30 C 300 22, 294 14, 284 16 C 276 18, 272 28, 274 36 C 276 44, 284 48, 292 46 C 298 44, 302 38, 304 32" stroke="currentColor" stroke-width="2" fill="none"/>
      <!-- a -->
      <path d="M320 28 C 320 22, 326 14, 334 14 C 342 14, 346 22, 346 30 L 346 46" stroke="currentColor" stroke-width="2" fill="none"/>
      <path d="M346 32 C 342 28, 336 26, 330 28 C 324 30, 320 36, 322 42 C 324 46, 330 48, 336 46 C 342 44, 346 38, 346 34" stroke="currentColor" stroke-width="2" fill="none"/>
      <!-- t -->
      <path d="M362 6 L 362 46" stroke="currentColor" stroke-width="2" fill="none"/>
      <path d="M352 16 L 372 16" stroke="currentColor" stroke-width="2" fill="none"/>
      <!-- e -->
      <path d="M386 30 C 386 24, 392 14, 402 14 C 412 14, 416 22, 416 30 L 386 30 C 386 38, 392 46, 402 46 C 410 46, 414 40, 416 36" stroke="currentColor" stroke-width="2" fill="none"/>
    </g>
  </g>

  <!-- Hairline rules -->
  <line x1="168" y1="214" x2="218" y2="214" stroke="currentColor" stroke-width="0.45" stroke-linecap="round" opacity="0.35"/>
  <line x1="268" y1="214" x2="318" y2="214" stroke="currentColor" stroke-width="0.45" stroke-linecap="round" opacity="0.35"/>

  <!-- ============ MONOGRAM — M & D as hand-lettered paths ============ -->
  <g stroke="currentColor" fill="currentColor" stroke-width="0.3">

    <!-- === LETTER M === -->
    <g transform="translate(130 240)">
      <path d="
        M 0 130 L 0 10 C 0 4, 3 0, 8 0 L 14 0 C 17 0, 19 3, 20 6
        L 50 94 C 52 100, 54 104, 56 108
        C 58 104, 60 100, 62 94
        L 92 6 C 93 3, 95 0, 98 0 L 104 0 C 109 0, 112 4, 112 10
        L 112 130
        L 104 130 C 102 130, 100 128, 100 124 L 100 24
        L 66 120 C 64 126, 62 128, 58 128
        L 54 128 C 50 128, 48 126, 46 120
        L 12 24 L 12 124 C 12 128, 10 130, 8 130 Z
        "
        fill="currentColor" stroke="none"/>
    </g>

    <!-- === AMPERSAND & === -->
    <!-- More ornamental italic version for v2 -->
    <g transform="translate(220 306)">
      <path d="
        M 44 52 C 38 58, 30 62, 22 62
        C 12 62, 2 54, 2 42 C 2 34, 8 26, 18 20
        L 12 12 C 8 6, 8 2, 12 -2 C 16 -4, 22 -4, 26 -2
        C 30 0, 32 4, 32 8 L 32 14
        C 32 18, 30 22, 26 26
        L 22 30 C 16 34, 12 38, 12 42
        C 12 48, 16 52, 24 52
        C 30 52, 36 48, 40 42
        Z
        "
        fill="currentColor" stroke="none" opacity="0.8"
        transform="skewX(-10)"/>
    </g>

    <!-- === LETTER D === -->
    <g transform="translate(270 240)">
      <path d="
        M 0 0 L 34 0
        C 64 0, 84 22, 84 65
        C 84 108, 64 130, 34 130
        L 0 130 Z
        M 12 12 L 12 118 L 32 118
        C 56 118, 72 100, 72 65
        C 72 30, 56 12, 32 12 Z
        "
        fill="currentColor" stroke="none"
        fill-rule="evenodd"/>
    </g>
  </g>

  <!-- ============ DECORATIVE HAIRLINE UNDER INITIALS ============ -->
  <g stroke="currentColor" stroke-linecap="round">
    <line x1="172" y1="386" x2="230" y2="386" stroke-width="0.45" opacity="0.4"/>
    <!-- Floral micro-ornament instead of diamond -->
    <g transform="translate(240 386)" stroke-width="0.4" opacity="0.45">
      <path d="M-4 0 C -4 -4, 0 -6, 4 -4 C 6 -2, 6 2, 4 4 C 2 6, -2 6, -4 4 C -6 2, -6 -2, -4 0 Z" fill="currentColor" stroke="none"/>
      <path d="M-8 0 C -8 -2, -6 -4, -4 -3" fill="none"/>
      <path d="M8 0 C 8 -2, 6 -4, 4 -3" fill="none"/>
    </g>
    <line x1="252" y1="386" x2="310" y2="386" stroke-width="0.45" opacity="0.4"/>
  </g>

  <!-- ============ DATE LINE — "doze · junho · mmxxvi" as paths ============ -->
  <g fill="currentColor" opacity="0.55">
    <g transform="translate(142 404) scale(0.30)">
      <!-- d -->
      <path d="M10 0 L 10 36 C 16 28, 24 24, 32 26 C 40 28, 46 36, 46 46 C 46 56, 40 64, 32 66 C 24 66, 16 62, 10 56 L 10 70 L 2 70 L 2 0 Z M 10 38 L 10 54 C 14 60, 22 62, 30 60 C 36 56, 40 50, 40 46 C 40 40, 36 34, 30 32 C 22 30, 14 34, 10 38 Z" fill-rule="evenodd"/>
      <!-- o -->
      <path d="M68 24 C 82 24, 92 36, 92 48 C 92 60, 82 70, 68 70 C 54 70, 44 60, 44 48 C 44 36, 54 24, 68 24 Z M 68 30 C 58 30, 50 38, 50 48 C 50 58, 58 64, 68 64 C 78 64, 86 58, 86 48 C 86 38, 78 30, 68 30 Z" fill-rule="evenodd"/>
      <!-- z -->
      <path d="M102 26 L 136 26 L 136 32 L 110 64 L 138 64 L 138 70 L 100 70 L 100 64 L 132 32 L 102 32 Z"/>
      <!-- e -->
      <path d="M156 24 C 170 24, 180 34, 180 48 L 148 48 C 148 58, 156 64, 166 64 C 172 64, 178 60, 180 56 L 186 60 C 182 66, 174 70, 164 70 C 150 70, 140 60, 140 48 C 140 36, 150 24, 156 24 Z M 148 42 L 174 42 C 172 34, 164 30, 156 30 C 148 30, 144 36, 148 42 Z" fill-rule="evenodd"/>
      <!-- dot -->
      <circle cx="210" cy="56" r="3.5"/>
      <!-- j -->
      <path d="M238 26 L 246 26 L 246 58 C 246 66, 240 72, 232 72 C 228 72, 224 70, 222 66 L 228 62 C 230 64, 232 66, 236 66 C 240 66, 240 62, 240 58 L 240 26 Z M 238 8 L 248 8 L 248 18 L 238 18 Z"/>
      <!-- u -->
      <path d="M260 26 L 268 26 L 268 52 C 268 60, 274 64, 282 64 C 290 64, 296 60, 296 52 L 296 26 L 304 26 L 304 54 C 304 64, 294 70, 282 70 C 270 70, 260 64, 260 54 Z"/>
      <!-- n -->
      <path d="M320 26 L 328 26 L 328 36 C 332 30, 340 24, 350 26 C 358 28, 362 36, 362 44 L 362 70 L 354 70 L 354 46 C 354 38, 350 32, 342 32 C 334 32, 328 38, 328 46 L 328 70 L 320 70 Z"/>
      <!-- h -->
      <path d="M380 0 L 388 0 L 388 36 C 392 30, 400 24, 410 26 C 418 28, 422 36, 422 44 L 422 70 L 414 70 L 414 46 C 414 38, 410 32, 402 32 C 394 32, 388 38, 388 46 L 388 70 L 380 70 Z"/>
      <!-- o -->
      <path d="M448 24 C 462 24, 472 36, 472 48 C 472 60, 462 70, 448 70 C 434 70, 424 60, 424 48 C 424 36, 434 24, 448 24 Z M 448 30 C 438 30, 430 38, 430 48 C 430 58, 438 64, 448 64 C 458 64, 466 58, 466 48 C 466 38, 458 30, 448 30 Z" fill-rule="evenodd"/>
      <!-- dot -->
      <circle cx="496" cy="56" r="3.5"/>
      <!-- m -->
      <path d="M520 26 L 528 26 L 528 36 C 532 28, 538 24, 548 26 C 554 28, 558 32, 560 38 C 564 30, 572 24, 582 26 C 590 28, 594 36, 594 46 L 594 70 L 586 70 L 586 48 C 586 38, 582 32, 574 32 C 566 32, 562 38, 562 48 L 562 70 L 554 70 L 554 48 C 554 38, 550 32, 542 32 C 534 32, 528 38, 528 48 L 528 70 L 520 70 Z"/>
      <!-- m -->
      <path d="M616 26 L 624 26 L 624 36 C 628 28, 634 24, 644 26 C 650 28, 654 32, 656 38 C 660 30, 668 24, 678 26 C 686 28, 690 36, 690 46 L 690 70 L 682 70 L 682 48 C 682 38, 678 32, 670 32 C 662 32, 658 38, 658 48 L 658 70 L 650 70 L 650 48 C 650 38, 646 32, 638 32 C 630 32, 624 38, 624 48 L 624 70 L 616 70 Z"/>
      <!-- x -->
      <path d="M710 26 L 724 48 L 710 70 L 720 70 L 730 52 L 740 70 L 750 70 L 736 48 L 750 26 L 740 26 L 730 44 L 720 26 Z"/>
      <!-- x -->
      <path d="M764 26 L 778 48 L 764 70 L 774 70 L 784 52 L 794 70 L 804 70 L 790 48 L 804 26 L 794 26 L 784 44 L 774 26 Z"/>
      <!-- v -->
      <path d="M822 26 L 838 62 L 854 26 L 862 26 L 842 70 L 834 70 L 814 26 Z"/>
      <!-- i -->
      <path d="M878 26 L 886 26 L 886 70 L 878 70 Z M 878 8 L 888 8 L 888 18 L 878 18 Z"/>
    </g>
  </g>
</svg>